<svg width="159" height="130" viewBox="0 0 159 130" fill="none" xmlns="http://www.w3.org/2000/svg">
<path d="M151.094 62.5573C151.104 71.2121 148.932 79.7729 144.718 87.6912C140.505 95.6095 134.343 102.711 126.627 108.539C124.48 110.162 122.224 111.682 119.868 113.091C116.845 114.9 113.663 116.518 110.347 117.932H110.313C109.606 118.239 108.888 118.532 108.164 118.815C107.834 118.95 107.51 119.074 107.174 119.199C105.077 119.996 102.927 120.712 100.722 121.346C98.9851 121.826 97.2014 122.306 95.4004 122.7C85.0112 124.991 74.1515 125.415 63.5487 123.943C62.292 123.771 61.0527 123.574 59.8191 123.348L58.7767 123.151C55.63 122.541 52.5348 121.762 49.5108 120.817C47.7541 120.27 46.0322 119.67 44.345 119.017C43.6906 118.762 43.0362 118.503 42.3934 118.234C41.9532 118.052 41.5189 117.864 41.0846 117.677C29.3011 112.546 19.374 104.911 12.3199 95.5524C5.26576 86.1942 1.33803 75.4497 0.938888 64.419C0.539748 53.3883 3.68355 42.4679 10.0484 32.7759C16.4132 23.0839 25.7703 14.9687 37.1616 9.26116C48.5529 3.55364 61.569 0.458944 74.877 0.293949C88.1851 0.128954 101.307 2.8996 112.899 8.32217C124.491 13.7447 134.137 21.6244 140.848 31.1542C147.559 40.6841 151.096 51.5217 151.094 62.5573Z" fill="url(#paint0_linear_1_126)"/>
<path d="M95.6782 67.0614C100.462 71.143 114.395 87.0273 114.395 87.0273L105.836 97.4327L98.1395 76.761L95.6782 67.0614Z" fill="url(#paint1_linear_1_126)"/>
<path d="M110.313 117.965C109.606 118.272 108.888 118.565 108.164 118.849C107.834 118.983 107.51 119.108 107.174 119.233C105.077 120.03 102.927 120.745 100.722 121.379C98.9851 121.859 97.2014 122.339 95.4004 122.733C85.0112 125.025 74.1515 125.449 63.5487 123.977C62.292 123.804 61.0527 123.607 59.8191 123.381C55.302 125.965 51.1323 128.15 48.3699 129.144L48.5958 127.545L49.5339 120.856L51.7056 105.293L60.3114 98.393L40.963 99.6366C40.963 99.6366 42.9957 76.2519 50.9296 71.4405C58.8636 66.6291 67.1856 62.3171 67.1856 62.3171C68.1784 62.86 69.2721 63.2639 70.4229 63.5128C73.1747 64.1435 76.035 64.3854 78.8838 64.2282C82.2775 64.0986 85.6711 61.4816 85.8333 61.3472C85.8333 61.3472 91.1612 62.2259 95.6783 67.0805C97.9312 69.5795 99.5488 72.4318 100.433 75.4644C101.545 79.013 103.52 87.3008 105.767 97.3126C107.238 103.757 108.784 110.902 110.313 117.965Z" fill="url(#paint2_linear_1_126)"/>
<path d="M114.396 87.0464L122.654 95.0702L151.697 71.1669L152.797 66.2739L158.588 62.1012L156.011 68.4635V76.7514C156.011 76.7514 133.611 106.859 127.438 108.41C120.216 110.229 105.848 97.4231 105.848 97.4231L114.396 87.0464Z" fill="url(#paint3_linear_1_126)"/>
<path d="M84.2467 98.0185L90.9818 111.464L99.686 108.362L93.3041 95.2047L84.2467 98.0185Z" fill="#7E57C2"/>
<path d="M93.6284 106.705C92.5454 107.444 90.9297 107.271 88.9259 107.358C86.2339 107.417 83.6518 108.256 81.629 109.73C78.9361 111.607 71.4075 116.52 63.8789 121.005C62.5122 121.816 61.1454 122.618 59.825 123.405C55.3079 125.989 51.1382 128.174 48.3758 129.168C47.6496 129.466 46.8654 129.657 46.0593 129.729C42.1908 129.811 41.3627 123.089 41.1252 117.725C41.0499 115.943 41.0326 114.316 40.992 113.139C40.8299 108.434 40.992 99.6943 40.992 99.6943L60.3405 98.4458L58.2904 109.557L57.9313 111.521V111.535L63.7225 109.759L63.9021 109.706L84.4609 103.372L85.8797 101.341L86.7832 103.262H86.87L95.6727 102.302C95.6727 102.302 95.8232 105.212 93.6284 106.705Z" fill="url(#paint4_linear_1_126)"/>
<path d="M89.1864 36.6277C88.6826 35.4849 88.2482 34.707 88.1208 34.4765V34.4189C88.1208 34.4189 87.6749 35.3312 84.316 35.1104C80.9571 34.8895 79.8452 33.5066 79.8452 33.5066C79.8452 33.5066 80.8992 36.5029 76.8974 37.785C73.0463 39.0238 71.529 38.2219 71.4247 38.1643C71.6274 38.3468 74.6389 41.0165 72.6409 43.1341C70.5734 45.3286 65.9231 44.8964 65.9231 44.8964V44.9252C66.5083 46.0241 67.1637 47.0964 67.8863 48.1376C68.2685 48.685 68.645 49.1892 69.0446 49.6598V49.6934C70.0701 51.0768 71.4551 52.253 73.0984 53.1363C72.3761 56.6502 70.3019 59.876 67.1856 62.3317C68.2339 62.7852 69.3151 63.1845 70.4229 63.5273C72.583 64.2044 75.4844 64.8766 78.0731 64.6894C81.0725 64.4235 83.8442 63.2385 85.8449 61.3665L84.5187 57.1457L83.3257 53.3427C94.1089 51.0619 91.1438 41.1414 89.1864 36.6277ZM82.7234 53.482L82.9145 53.4436L83.2214 53.3715C82.7748 53.5318 82.3029 53.6385 81.82 53.6885C82.069 53.6357 82.3238 53.578 82.5902 53.5108L82.7234 53.482Z" fill="url(#paint5_linear_1_126)"/>
<path d="M95.6782 34.294C91.2305 37.6841 89.3079 36.7285 89.1863 36.6373V36.6277C88.6824 35.4848 88.2481 34.7069 88.1264 34.4765L88.0975 34.4188C88.0975 34.4188 87.6458 35.3312 84.2869 35.1103C80.928 34.8894 79.8218 33.5065 79.8218 33.5065C79.8218 33.5065 80.8759 36.5028 76.8741 37.7849C73.0172 39.0238 71.4999 38.2219 71.4014 38.1642C71.6041 38.3419 74.6155 41.0117 72.6176 43.1293C70.5501 45.3237 65.8998 44.8963 65.8998 44.8963V44.9204C66.4848 46.0209 67.1402 47.0948 67.863 48.1375C68.2491 48.6817 68.6352 49.1891 69.0212 49.6597V49.6933C69.0212 49.6933 67.4344 52.2815 64.6025 52.2287C61.7706 52.1758 61.7069 49.8278 61.7069 49.8278C61.7069 49.8278 59.7032 52.8241 53.5124 49.9382C47.3216 47.0523 51.4507 42.87 51.4507 42.87C51.4507 42.87 47.061 40.085 47.061 35.9122C47.061 31.7395 53.8946 28.5655 53.8946 28.5655C53.8946 28.5655 51.4507 23.7205 55.574 21.0507C59.6974 18.3809 65.894 20.1912 65.894 20.1912C65.894 20.1912 65.7724 13.9921 72.0848 14.0929C78.3972 14.1937 79.8276 17.3965 79.8276 17.3965C79.8276 17.3965 85.503 13.7568 91.1205 17.1852C96.738 20.6137 94.4273 26.5919 94.4273 26.5919C94.4273 26.5919 100.317 30.7647 95.6782 34.294Z" fill="url(#paint6_linear_1_126)"/>
<path opacity="0.15" d="M84.5652 57.1312C81.8722 56.4254 77.0829 53.7316 77.0829 53.7316C78.973 53.8972 80.8828 53.8129 82.7409 53.4819L82.932 53.4435L83.3027 53.3522H83.3548L84.5652 57.1312Z" fill="black"/>
<path opacity="0.15" d="M62.9231 84.0309L60.3113 98.4362L58.2612 109.548L53.4892 112.837L63.8729 109.711C63.8729 109.711 61.18 103.334 62.9231 84.0309Z" fill="black"/>
<path opacity="0.15" d="M59.8075 123.381C61.0411 123.607 62.2804 123.804 63.5371 123.977C63.6008 122.993 63.7166 121.999 63.8788 121.005L59.8075 123.381Z" fill="black"/>
<defs>
<linearGradient id="paint0_linear_1_126" x1="76.308" y1="7.04819" x2="74.5421" y2="129.778" gradientUnits="userSpaceOnUse">
<stop stop-color="white" stop-opacity="0"/>
<stop offset="1" stop-color="#64B5F6" stop-opacity="0.6"/>
</linearGradient>
<linearGradient id="paint1_linear_1_126" x1="90.0086" y1="62.9367" x2="105.42" y2="95.5985" gradientUnits="userSpaceOnUse">
<stop stop-color="#E57373"/>
<stop offset="1" stop-color="#AD1457"/>
</linearGradient>
<linearGradient id="paint2_linear_1_126" x1="31706.1" y1="37439.5" x2="30183.7" y2="46501.2" gradientUnits="userSpaceOnUse">
<stop stop-color="#E57373"/>
<stop offset="1" stop-color="#AD1457"/>
</linearGradient>
<linearGradient id="paint3_linear_1_126" x1="166.447" y1="74.0336" x2="116.088" y2="109.219" gradientUnits="userSpaceOnUse">
<stop stop-color="#FFF8E1"/>
<stop offset="1" stop-color="#FFCC80"/>
</linearGradient>
<linearGradient id="paint4_linear_1_126" x1="24381.1" y1="20970.1" x2="21729.8" y2="18814" gradientUnits="userSpaceOnUse">
<stop stop-color="#FFF8E1"/>
<stop offset="1" stop-color="#FFCC80"/>
</linearGradient>
<linearGradient id="paint5_linear_1_126" x1="94.856" y1="41.5176" x2="66.1594" y2="55.7706" gradientUnits="userSpaceOnUse">
<stop stop-color="#FFF8E1"/>
<stop offset="1" stop-color="#FFCC80"/>
</linearGradient>
<linearGradient id="paint6_linear_1_126" x1="87.8369" y1="13.9104" x2="60.1633" y2="59.0073" gradientUnits="userSpaceOnUse">
<stop stop-color="#FFB74D"/>
<stop offset="1" stop-color="#F4511E"/>
</linearGradient>
</defs>
</svg>
