<svg width="217" height="125" viewBox="0 0 217 125" fill="none" xmlns="http://www.w3.org/2000/svg">
<path d="M216.793 62.6949C216.786 74.1288 213.029 85.3403 205.935 95.1009C198.841 104.862 188.684 112.794 176.575 118.03C175.866 118.342 175.146 118.64 174.42 118.928C174.094 119.062 173.774 119.187 173.443 119.312C171.374 120.108 169.251 120.823 167.075 121.457C165.36 121.96 163.6 122.416 161.822 122.81C145.032 126.563 127.206 125.261 111.441 119.129C110.795 118.875 110.149 118.616 109.515 118.347C97.7111 113.391 87.698 105.878 80.5102 96.5864C73.3224 87.2944 69.2204 76.5599 68.6282 65.4918C68.0359 54.4237 70.9748 43.4236 77.1412 33.6281C83.3076 23.8325 92.4778 15.5968 103.704 9.77179C114.931 3.94682 127.807 0.743912 141.001 0.493986C154.196 0.24406 167.231 2.95619 178.759 8.35014C190.287 13.7441 199.89 21.6242 206.577 31.1763C213.263 40.7285 216.79 51.6061 216.793 62.6853V62.6949Z" fill="url(#paint0_linear_1_150)"/>
<path d="M113.619 101.102L105.433 90.3675C105.433 90.3675 128.109 68.3619 130.378 67.0615C130.378 67.0615 118.94 83.1698 113.619 101.102Z" fill="url(#paint1_linear_1_150)"/>
<path d="M105.433 90.3675L90.0001 101.884L61.6085 90.3675L39.8876 91.3656C39.8876 91.3656 53.4174 95.2043 57.2243 95.046L61.0369 94.8876C61.0369 94.8876 84.3526 113.76 89.7143 115.199C95.0759 116.639 112.687 105.353 112.687 105.353L113.71 101.135L105.433 90.3675Z" fill="url(#paint2_linear_1_150)"/>
<path d="M148.018 64.4559C145.873 65.3276 143.567 65.8859 141.199 66.1066C138.461 66.4521 134.299 65.1757 134.299 65.1757C137.443 63.098 136.711 58.1988 136.711 58.1988L136.78 58.17C140.135 57.954 142.942 56.3562 144.903 54.8111C144.194 59.0049 148.018 64.4559 148.018 64.4559Z" fill="url(#paint3_linear_1_150)"/>
<path d="M148.018 48.8514V51.7305C147.124 52.849 146.081 53.8778 144.908 54.7967C142.948 56.3466 140.141 57.9445 136.786 58.1556C135.262 58.2534 133.731 58.0649 132.304 57.6038C123.159 54.7247 129.589 39.4897 129.589 39.4897C132.493 33.2901 145.64 36.2891 145.64 36.2891C147.401 38.0501 147.738 42.9685 147.669 43.4484C147.376 44.1225 146.993 44.7665 146.526 45.3678C146.526 45.3678 149.024 43.3908 149.881 44.7056C150.739 46.0204 148.018 48.8514 148.018 48.8514Z" fill="url(#paint4_linear_1_150)"/>
<path d="M148.018 51.7401V48.861C148.018 48.861 150.733 46.0539 149.876 44.7296C149.018 43.4052 146.52 45.3917 146.52 45.3917C146.987 44.7905 147.37 44.1465 147.663 43.4724C147.732 42.9925 147.446 38.3524 145.634 36.3131C145.634 36.3131 132.487 33.3141 129.584 39.5137C129.584 39.5137 125.822 38.7123 122.581 34.9551C117.283 28.8084 123.61 28.055 129.881 29.2402C137.489 30.6797 145.114 25.9581 153.831 30.7565C162.548 35.555 154.734 46.4618 148.018 51.7401Z" fill="#262F72"/>
<g filter="url(#filter0_d_1_150)">
<path d="M88.1824 24.9504H14.0168C12.2237 24.9504 10.7701 26.1706 10.7701 27.6759V85.0844C10.7701 86.5896 12.2237 87.8099 14.0168 87.8099H88.1824C89.9755 87.8099 91.4291 86.5896 91.4291 85.0844V27.6759C91.4291 26.1706 89.9755 24.9504 88.1824 24.9504Z" fill="white"/>
</g>
<path d="M23.1225 36.3419C22.9166 36.5375 22.6521 36.6832 22.3565 36.7641C22.0038 36.8669 21.6324 36.9172 21.2591 36.9129C20.8716 36.9203 20.4888 36.8408 20.1501 36.6826C19.8293 36.5261 19.5723 36.292 19.4128 36.0108C19.2311 35.6868 19.1392 35.3324 19.1441 34.9743V34.696C19.1337 34.3318 19.2176 33.97 19.3899 33.6356C19.538 33.3519 19.7852 33.1126 20.0987 32.9494C20.4781 32.7769 20.9068 32.696 21.3376 32.7155C21.7684 32.7349 22.1843 32.8541 22.5394 33.0597C22.8804 33.3215 23.0856 33.685 23.111 34.0722H22.1336C22.1114 33.8766 22.0059 33.6943 21.8364 33.5588C21.6567 33.4432 21.4337 33.3853 21.2076 33.3956C21.0552 33.3885 20.9032 33.4143 20.7661 33.4706C20.629 33.5269 20.5113 33.6118 20.4245 33.7171C20.2239 34.0077 20.1304 34.3417 20.1559 34.6768V34.9359C20.1311 35.2736 20.233 35.6092 20.4474 35.8956C20.5463 36.0051 20.6756 36.0925 20.8241 36.1502C20.9726 36.208 21.1357 36.2342 21.2991 36.2267C21.5885 36.2479 21.8766 36.1759 22.105 36.0252V35.3198H21.1905V34.7008H23.111L23.1225 36.3419Z" fill="#64B5F6"/>
<path d="M81.8948 32.7094H29.3415C28.7007 32.7094 28.1812 33.1456 28.1812 33.6835V37.2248C28.1812 37.7627 28.7007 38.1989 29.3415 38.1989H81.8948C82.5356 38.1989 83.0551 37.7627 83.0551 37.2248V33.6835C83.0551 33.1456 82.5356 32.7094 81.8948 32.7094Z" fill="#E7EEF2"/>
<path d="M83.0551 41.2987H28.1812V42.2584H83.0551V41.2987Z" fill="#BBDEFB"/>
<path d="M83.0551 43.4579H28.1812V44.4176H83.0551V43.4579Z" fill="#E7E8E9"/>
<path d="M83.0551 45.6172H28.1812V46.5769H83.0551V45.6172Z" fill="#E7E8E9"/>
<path d="M83.0551 47.7766H28.1812V48.7362H83.0551V47.7766Z" fill="#E7E8E9"/>
<path d="M83.0551 51.8168H28.1812V52.7765H83.0551V51.8168Z" fill="#BBDEFB"/>
<path d="M83.0551 53.9761H28.1812V54.9358H83.0551V53.9761Z" fill="#E7E8E9"/>
<path d="M83.0551 56.1354H28.1812V57.0951H83.0551V56.1354Z" fill="#E7E8E9"/>
<path d="M83.0551 58.2947H28.1812V59.2544H83.0551V58.2947Z" fill="#E7E8E9"/>
<path d="M83.0551 62.2151H28.1812V63.1748H83.0551V62.2151Z" fill="#BBDEFB"/>
<path d="M83.0551 64.3743H28.1812V65.334H83.0551V64.3743Z" fill="#E7E8E9"/>
<path d="M83.0551 66.5336H28.1812V67.4933H83.0551V66.5336Z" fill="#E7E8E9"/>
<path d="M83.0551 68.6929H28.1812V69.6526H83.0551V68.6929Z" fill="#E7E8E9"/>
<path d="M83.0551 72.6133H28.1812V73.573H83.0551V72.6133Z" fill="#BBDEFB"/>
<path d="M83.0551 74.7725H28.1812V75.7322H83.0551V74.7725Z" fill="#E7E8E9"/>
<path d="M83.0551 76.9319H28.1812V77.8915H83.0551V76.9319Z" fill="#E7E8E9"/>
<path d="M83.0551 79.0912H28.1812V80.0509H83.0551V79.0912Z" fill="#E7E8E9"/>
<path d="M167.79 87.6372C171.699 97.4068 174.597 108.717 176.575 118.03C175.866 118.342 175.146 118.64 174.42 118.928C174.094 119.062 173.774 119.187 173.443 119.312C171.374 120.108 169.251 120.823 167.075 121.457C165.36 121.96 163.6 122.416 161.822 122.81C145.032 126.563 127.206 125.261 111.441 119.129C110.795 118.875 110.149 118.616 109.515 118.347C110.658 113.419 112.018 107.627 113.613 101.106C114.192 98.7424 114.8 96.2824 115.436 93.7264C118.712 80.6315 123.41 73.501 127.292 69.6382L127.332 69.5999C128.069 68.8655 128.867 68.176 129.721 67.5365C129.745 67.5133 129.772 67.4924 129.801 67.4741C129.995 67.3302 130.19 67.1958 130.372 67.0663C132.71 65.4684 134.299 65.1757 134.299 65.1757L134.442 65.2189H134.522C135.764 65.6299 137.065 65.8994 138.392 66.0202H138.615H138.649C139.497 66.0883 140.349 66.0995 141.199 66.0538H141.25C143.609 65.9276 145.907 65.3708 147.984 64.4223C150.418 65.0984 152.712 66.0909 154.78 67.3638C160.69 71.0058 172.597 84.3598 172.597 84.3598L167.79 87.6372Z" fill="url(#paint5_linear_1_150)"/>
<path d="M189.562 105.871C189.528 107.205 188.082 109.912 185.967 113.194C182.983 115.001 179.841 116.618 176.569 118.03C175.861 118.342 175.14 118.64 174.414 118.928C174.089 119.062 173.769 119.187 173.437 119.312C171.368 120.108 169.245 120.823 167.069 121.457L172.591 106.682L158.301 94.0863L167.784 87.6372L172.591 84.3694C172.591 84.3694 189.711 100.713 189.562 105.871Z" fill="url(#paint6_linear_1_150)"/>
<defs>
<filter id="filter0_d_1_150" x="0.770081" y="18.9504" width="100.659" height="82.8595" filterUnits="userSpaceOnUse" color-interpolation-filters="sRGB">
<feFlood flood-opacity="0" result="BackgroundImageFix"/>
<feColorMatrix in="SourceAlpha" type="matrix" values="0 0 0 0 0 0 0 0 0 0 0 0 0 0 0 0 0 0 127 0" result="hardAlpha"/>
<feOffset dy="4"/>
<feGaussianBlur stdDeviation="5"/>
<feColorMatrix type="matrix" values="0 0 0 0 0 0 0 0 0 0 0 0 0 0 0 0 0 0 0.15 0"/>
<feBlend mode="normal" in2="BackgroundImageFix" result="effect1_dropShadow_1_150"/>
<feBlend mode="normal" in="SourceGraphic" in2="effect1_dropShadow_1_150" result="shape"/>
</filter>
<linearGradient id="paint0_linear_1_150" x1="142.978" y1="7.23492" x2="141.191" y2="129.884" gradientUnits="userSpaceOnUse">
<stop stop-color="white" stop-opacity="0"/>
<stop offset="1" stop-color="#64B5F6" stop-opacity="0.6"/>
</linearGradient>
<linearGradient id="paint1_linear_1_150" x1="119.706" y1="64.7774" x2="116.675" y2="98.1207" gradientUnits="userSpaceOnUse">
<stop stop-color="#42A5F5"/>
<stop offset="1" stop-color="#1565C0"/>
</linearGradient>
<linearGradient id="paint2_linear_1_150" x1="70.2397" y1="99.7628" x2="117.342" y2="107.199" gradientUnits="userSpaceOnUse">
<stop stop-color="#FFE082"/>
<stop offset="1" stop-color="#FFA726"/>
</linearGradient>
<linearGradient id="paint3_linear_1_150" x1="10660.6" y1="2399.13" x2="10663" y2="2183.38" gradientUnits="userSpaceOnUse">
<stop stop-color="#FFE082"/>
<stop offset="1" stop-color="#FFA726"/>
</linearGradient>
<linearGradient id="paint4_linear_1_150" x1="16965.5" y1="3842.65" x2="17863.4" y2="3842.65" gradientUnits="userSpaceOnUse">
<stop stop-color="#FFE082"/>
<stop offset="1" stop-color="#FFA726"/>
</linearGradient>
<linearGradient id="paint5_linear_1_150" x1="48618.5" y1="14238.3" x2="54127" y2="20596.3" gradientUnits="userSpaceOnUse">
<stop stop-color="#42A5F5"/>
<stop offset="1" stop-color="#1565C0"/>
</linearGradient>
<linearGradient id="paint6_linear_1_150" x1="26047.3" y1="11563.2" x2="25728.2" y2="9170.64" gradientUnits="userSpaceOnUse">
<stop stop-color="#FFE082"/>
<stop offset="1" stop-color="#FFA726"/>
</linearGradient>
</defs>
</svg>
